<mxfile host="app.diagrams.net" modified="2023-10-24T09:13:38.810Z" agent="Mozilla/5.0 (Windows NT 10.0; Win64; x64) AppleWebKit/537.36 (KHTML, like Gecko) Chrome/95.0.4638.69 Safari/537.36" etag="4-wZPiTpDRk9jRPB-QXh" version="22.0.6" type="github">
  <diagram name="第 1 页" id="8K90JyKBU_nHYNWCrXZV">
    <mxGraphModel dx="2515" dy="-4172" grid="1" gridSize="10" guides="1" tooltips="1" connect="1" arrows="1" fold="1" page="1" pageScale="1" pageWidth="827" pageHeight="1169" math="0" shadow="0">
      <root>
        <mxCell id="0" />
        <mxCell id="1" parent="0" />
        <mxCell id="mpIghDz12KklzBCiSZKW-1" value="&lt;h3 style=&quot;box-sizing: border-box; outline: 0px; margin: 24px 0px 8px; padding: 0px; font-family: &amp;quot;PingFang SC&amp;quot;, &amp;quot;Microsoft YaHei&amp;quot;, SimHei, Arial, SimSun; font-size: 20px; color: rgb(79, 79, 79); line-height: 30px; overflow-wrap: break-word; text-align: start; background-color: rgb(255, 255, 255);&quot;&gt;采购管理&lt;/h3&gt;&lt;div&gt;（4）&lt;/div&gt;" style="rounded=0;whiteSpace=wrap;html=1;" vertex="1" parent="1">
          <mxGeometry x="-920" y="5506" width="120" height="670" as="geometry" />
        </mxCell>
        <mxCell id="mpIghDz12KklzBCiSZKW-2" value="&lt;h4 style=&quot;box-sizing: border-box; outline: 0px; margin: 24px 0px 8px; padding: 0px; font-family: &amp;quot;PingFang SC&amp;quot;, &amp;quot;Microsoft YaHei&amp;quot;, SimHei, Arial, SimSun; font-size: 18px; color: rgb(79, 79, 79); line-height: 26px; overflow-wrap: break-word; text-align: start; background-color: rgb(255, 255, 255);&quot;&gt;规划采购&lt;/h4&gt;" style="rounded=0;whiteSpace=wrap;html=1;" vertex="1" parent="1">
          <mxGeometry x="-800" y="5506" width="120" height="230" as="geometry" />
        </mxCell>
        <mxCell id="mpIghDz12KklzBCiSZKW-3" value="&lt;p style=&quot;box-sizing: border-box; outline: 0px; margin: 0px; padding: 0px; font-size: 14px; color: rgb(79, 79, 79); overflow: auto hidden; line-height: 22px; overflow-wrap: break-word; text-align: left; font-family: -apple-system, &amp;quot;SF UI Text&amp;quot;, Arial, &amp;quot;PingFang SC&amp;quot;, &amp;quot;Hiragino Sans GB&amp;quot;, &amp;quot;Microsoft YaHei&amp;quot;, &amp;quot;WenQuanYi Micro Hei&amp;quot;, sans-serif, SimHei, SimSun; background-color: rgb(255, 255, 255);&quot;&gt;①自制或外购分析&lt;/p&gt;&lt;p style=&quot;box-sizing: border-box; outline: 0px; margin: 0px; padding: 0px; font-size: 14px; color: rgb(79, 79, 79); overflow: auto hidden; line-height: 22px; overflow-wrap: break-word; text-align: left; font-family: -apple-system, &amp;quot;SF UI Text&amp;quot;, Arial, &amp;quot;PingFang SC&amp;quot;, &amp;quot;Hiragino Sans GB&amp;quot;, &amp;quot;Microsoft YaHei&amp;quot;, &amp;quot;WenQuanYi Micro Hei&amp;quot;, sans-serif, SimHei, SimSun; background-color: rgb(255, 255, 255);&quot;&gt;②专家判断&lt;/p&gt;&lt;p style=&quot;box-sizing: border-box; outline: 0px; margin: 0px; padding: 0px; font-size: 14px; color: rgb(79, 79, 79); overflow: auto hidden; line-height: 22px; overflow-wrap: break-word; text-align: left; font-family: -apple-system, &amp;quot;SF UI Text&amp;quot;, Arial, &amp;quot;PingFang SC&amp;quot;, &amp;quot;Hiragino Sans GB&amp;quot;, &amp;quot;Microsoft YaHei&amp;quot;, &amp;quot;WenQuanYi Micro Hei&amp;quot;, sans-serif, SimHei, SimSun; background-color: rgb(255, 255, 255);&quot;&gt;③市场调研&lt;/p&gt;&lt;p style=&quot;box-sizing: border-box; outline: 0px; margin: 0px; padding: 0px; font-size: 14px; color: rgb(79, 79, 79); overflow: auto hidden; line-height: 22px; overflow-wrap: break-word; text-align: left; font-family: -apple-system, &amp;quot;SF UI Text&amp;quot;, Arial, &amp;quot;PingFang SC&amp;quot;, &amp;quot;Hiragino Sans GB&amp;quot;, &amp;quot;Microsoft YaHei&amp;quot;, &amp;quot;WenQuanYi Micro Hei&amp;quot;, sans-serif, SimHei, SimSun; background-color: rgb(255, 255, 255);&quot;&gt;④会议&lt;/p&gt;" style="rounded=0;whiteSpace=wrap;html=1;" vertex="1" parent="1">
          <mxGeometry x="-560" y="5506.5" width="120" height="229.5" as="geometry" />
        </mxCell>
        <mxCell id="mpIghDz12KklzBCiSZKW-4" value="&lt;p style=&quot;box-sizing: border-box; outline: 0px; margin: 0px; padding: 0px; font-size: 14px; color: rgb(79, 79, 79); overflow: auto hidden; line-height: 22px; overflow-wrap: break-word; text-align: left; font-family: -apple-system, &amp;quot;SF UI Text&amp;quot;, Arial, &amp;quot;PingFang SC&amp;quot;, &amp;quot;Hiragino Sans GB&amp;quot;, &amp;quot;Microsoft YaHei&amp;quot;, &amp;quot;WenQuanYi Micro Hei&amp;quot;, sans-serif, SimHei, SimSun; background-color: rgb(255, 255, 255);&quot;&gt;①采购管理计划&lt;/p&gt;&lt;p style=&quot;box-sizing: border-box; outline: 0px; margin: 0px; padding: 0px; font-size: 14px; color: rgb(79, 79, 79); overflow: auto hidden; line-height: 22px; overflow-wrap: break-word; text-align: left; font-family: -apple-system, &amp;quot;SF UI Text&amp;quot;, Arial, &amp;quot;PingFang SC&amp;quot;, &amp;quot;Hiragino Sans GB&amp;quot;, &amp;quot;Microsoft YaHei&amp;quot;, &amp;quot;WenQuanYi Micro Hei&amp;quot;, sans-serif, SimHei, SimSun; background-color: rgb(255, 255, 255);&quot;&gt;②采购工作说明书&lt;/p&gt;&lt;p style=&quot;box-sizing: border-box; outline: 0px; margin: 0px; padding: 0px; font-size: 14px; color: rgb(79, 79, 79); overflow: auto hidden; line-height: 22px; overflow-wrap: break-word; text-align: left; font-family: -apple-system, &amp;quot;SF UI Text&amp;quot;, Arial, &amp;quot;PingFang SC&amp;quot;, &amp;quot;Hiragino Sans GB&amp;quot;, &amp;quot;Microsoft YaHei&amp;quot;, &amp;quot;WenQuanYi Micro Hei&amp;quot;, sans-serif, SimHei, SimSun; background-color: rgb(255, 255, 255);&quot;&gt;③采购文件&lt;/p&gt;&lt;p style=&quot;box-sizing: border-box; outline: 0px; margin: 0px; padding: 0px; font-size: 14px; color: rgb(79, 79, 79); overflow: auto hidden; line-height: 22px; overflow-wrap: break-word; text-align: left; font-family: -apple-system, &amp;quot;SF UI Text&amp;quot;, Arial, &amp;quot;PingFang SC&amp;quot;, &amp;quot;Hiragino Sans GB&amp;quot;, &amp;quot;Microsoft YaHei&amp;quot;, &amp;quot;WenQuanYi Micro Hei&amp;quot;, sans-serif, SimHei, SimSun; background-color: rgb(255, 255, 255);&quot;&gt;④供方选择标准&lt;/p&gt;&lt;p style=&quot;box-sizing: border-box; outline: 0px; margin: 0px; padding: 0px; font-size: 14px; color: rgb(79, 79, 79); overflow: auto hidden; line-height: 22px; overflow-wrap: break-word; text-align: left; font-family: -apple-system, &amp;quot;SF UI Text&amp;quot;, Arial, &amp;quot;PingFang SC&amp;quot;, &amp;quot;Hiragino Sans GB&amp;quot;, &amp;quot;Microsoft YaHei&amp;quot;, &amp;quot;WenQuanYi Micro Hei&amp;quot;, sans-serif, SimHei, SimSun; background-color: rgb(255, 255, 255);&quot;&gt;⑤自制或外购决策&lt;/p&gt;&lt;p style=&quot;box-sizing: border-box; outline: 0px; margin: 0px; padding: 0px; font-size: 14px; color: rgb(79, 79, 79); overflow: auto hidden; line-height: 22px; overflow-wrap: break-word; text-align: left; font-family: -apple-system, &amp;quot;SF UI Text&amp;quot;, Arial, &amp;quot;PingFang SC&amp;quot;, &amp;quot;Hiragino Sans GB&amp;quot;, &amp;quot;Microsoft YaHei&amp;quot;, &amp;quot;WenQuanYi Micro Hei&amp;quot;, sans-serif, SimHei, SimSun; background-color: rgb(255, 255, 255);&quot;&gt;⑥变更请求&lt;/p&gt;&lt;p style=&quot;box-sizing: border-box; outline: 0px; margin: 0px; padding: 0px; font-size: 14px; color: rgb(79, 79, 79); overflow: auto hidden; line-height: 22px; overflow-wrap: break-word; text-align: left; font-family: -apple-system, &amp;quot;SF UI Text&amp;quot;, Arial, &amp;quot;PingFang SC&amp;quot;, &amp;quot;Hiragino Sans GB&amp;quot;, &amp;quot;Microsoft YaHei&amp;quot;, &amp;quot;WenQuanYi Micro Hei&amp;quot;, sans-serif, SimHei, SimSun; background-color: rgb(255, 255, 255);&quot;&gt;⑦项目文件更新&lt;/p&gt;" style="rounded=0;whiteSpace=wrap;html=1;" vertex="1" parent="1">
          <mxGeometry x="-440" y="5506.5" width="120" height="229.5" as="geometry" />
        </mxCell>
        <mxCell id="mpIghDz12KklzBCiSZKW-5" value="&lt;p style=&quot;box-sizing: border-box; outline: 0px; margin: 0px; padding: 0px; font-size: 14px; color: rgb(79, 79, 79); overflow: auto hidden; line-height: 22px; overflow-wrap: break-word; text-align: left; font-family: -apple-system, &amp;quot;SF UI Text&amp;quot;, Arial, &amp;quot;PingFang SC&amp;quot;, &amp;quot;Hiragino Sans GB&amp;quot;, &amp;quot;Microsoft YaHei&amp;quot;, &amp;quot;WenQuanYi Micro Hei&amp;quot;, sans-serif, SimHei, SimSun; background-color: rgb(255, 255, 255);&quot;&gt;规划过程组&lt;/p&gt;" style="rounded=0;whiteSpace=wrap;html=1;" vertex="1" parent="1">
          <mxGeometry x="-320" y="5506.5" width="120" height="229.5" as="geometry" />
        </mxCell>
        <mxCell id="mpIghDz12KklzBCiSZKW-6" value="&lt;p style=&quot;box-sizing: border-box; outline: 0px; margin: 0px; padding: 0px; font-size: 14px; color: rgb(79, 79, 79); overflow: auto hidden; line-height: 22px; overflow-wrap: break-word; text-align: left; font-family: -apple-system, &amp;quot;SF UI Text&amp;quot;, Arial, &amp;quot;PingFang SC&amp;quot;, &amp;quot;Hiragino Sans GB&amp;quot;, &amp;quot;Microsoft YaHei&amp;quot;, &amp;quot;WenQuanYi Micro Hei&amp;quot;, sans-serif, SimHei, SimSun; background-color: rgb(255, 255, 255);&quot;&gt;①项目管理计划&lt;/p&gt;&lt;p style=&quot;box-sizing: border-box; outline: 0px; margin: 0px; padding: 0px; font-size: 14px; color: rgb(79, 79, 79); overflow: auto hidden; line-height: 22px; overflow-wrap: break-word; text-align: left; font-family: -apple-system, &amp;quot;SF UI Text&amp;quot;, Arial, &amp;quot;PingFang SC&amp;quot;, &amp;quot;Hiragino Sans GB&amp;quot;, &amp;quot;Microsoft YaHei&amp;quot;, &amp;quot;WenQuanYi Micro Hei&amp;quot;, sans-serif, SimHei, SimSun; background-color: rgb(255, 255, 255);&quot;&gt;②需求文档&lt;/p&gt;&lt;p style=&quot;box-sizing: border-box; outline: 0px; margin: 0px; padding: 0px; font-size: 14px; color: rgb(79, 79, 79); overflow: auto hidden; line-height: 22px; overflow-wrap: break-word; text-align: left; font-family: -apple-system, &amp;quot;SF UI Text&amp;quot;, Arial, &amp;quot;PingFang SC&amp;quot;, &amp;quot;Hiragino Sans GB&amp;quot;, &amp;quot;Microsoft YaHei&amp;quot;, &amp;quot;WenQuanYi Micro Hei&amp;quot;, sans-serif, SimHei, SimSun; background-color: rgb(255, 255, 255);&quot;&gt;③风险登记册&lt;/p&gt;&lt;p style=&quot;box-sizing: border-box; outline: 0px; margin: 0px; padding: 0px; font-size: 14px; color: rgb(79, 79, 79); overflow: auto hidden; line-height: 22px; overflow-wrap: break-word; text-align: left; font-family: -apple-system, &amp;quot;SF UI Text&amp;quot;, Arial, &amp;quot;PingFang SC&amp;quot;, &amp;quot;Hiragino Sans GB&amp;quot;, &amp;quot;Microsoft YaHei&amp;quot;, &amp;quot;WenQuanYi Micro Hei&amp;quot;, sans-serif, SimHei, SimSun; background-color: rgb(255, 255, 255);&quot;&gt;④活动资源需求&lt;/p&gt;&lt;p style=&quot;box-sizing: border-box; outline: 0px; margin: 0px; padding: 0px; font-size: 14px; color: rgb(79, 79, 79); overflow: auto hidden; line-height: 22px; overflow-wrap: break-word; text-align: left; font-family: -apple-system, &amp;quot;SF UI Text&amp;quot;, Arial, &amp;quot;PingFang SC&amp;quot;, &amp;quot;Hiragino Sans GB&amp;quot;, &amp;quot;Microsoft YaHei&amp;quot;, &amp;quot;WenQuanYi Micro Hei&amp;quot;, sans-serif, SimHei, SimSun; background-color: rgb(255, 255, 255);&quot;&gt;⑤项目进度管理计划&lt;/p&gt;&lt;p style=&quot;box-sizing: border-box; outline: 0px; margin: 0px; padding: 0px; font-size: 14px; color: rgb(79, 79, 79); overflow: auto hidden; line-height: 22px; overflow-wrap: break-word; text-align: left; font-family: -apple-system, &amp;quot;SF UI Text&amp;quot;, Arial, &amp;quot;PingFang SC&amp;quot;, &amp;quot;Hiragino Sans GB&amp;quot;, &amp;quot;Microsoft YaHei&amp;quot;, &amp;quot;WenQuanYi Micro Hei&amp;quot;, sans-serif, SimHei, SimSun; background-color: rgb(255, 255, 255);&quot;&gt;⑥活动成本估算&lt;/p&gt;&lt;p style=&quot;box-sizing: border-box; outline: 0px; margin: 0px; padding: 0px; font-size: 14px; color: rgb(79, 79, 79); overflow: auto hidden; line-height: 22px; overflow-wrap: break-word; text-align: left; font-family: -apple-system, &amp;quot;SF UI Text&amp;quot;, Arial, &amp;quot;PingFang SC&amp;quot;, &amp;quot;Hiragino Sans GB&amp;quot;, &amp;quot;Microsoft YaHei&amp;quot;, &amp;quot;WenQuanYi Micro Hei&amp;quot;, sans-serif, SimHei, SimSun; background-color: rgb(255, 255, 255);&quot;&gt;⑦干系人登记册&lt;/p&gt;&lt;p style=&quot;box-sizing: border-box; outline: 0px; margin: 0px; padding: 0px; font-size: 14px; color: rgb(79, 79, 79); overflow: auto hidden; line-height: 22px; overflow-wrap: break-word; text-align: left; font-family: -apple-system, &amp;quot;SF UI Text&amp;quot;, Arial, &amp;quot;PingFang SC&amp;quot;, &amp;quot;Hiragino Sans GB&amp;quot;, &amp;quot;Microsoft YaHei&amp;quot;, &amp;quot;WenQuanYi Micro Hei&amp;quot;, sans-serif, SimHei, SimSun; background-color: rgb(255, 255, 255);&quot;&gt;⑧事业环境因素&lt;/p&gt;&lt;p style=&quot;box-sizing: border-box; outline: 0px; margin: 0px; padding: 0px; font-size: 14px; color: rgb(79, 79, 79); overflow: auto hidden; line-height: 22px; overflow-wrap: break-word; text-align: left; font-family: -apple-system, &amp;quot;SF UI Text&amp;quot;, Arial, &amp;quot;PingFang SC&amp;quot;, &amp;quot;Hiragino Sans GB&amp;quot;, &amp;quot;Microsoft YaHei&amp;quot;, &amp;quot;WenQuanYi Micro Hei&amp;quot;, sans-serif, SimHei, SimSun; background-color: rgb(255, 255, 255);&quot;&gt;⑨组织过程资产&lt;/p&gt;" style="rounded=0;whiteSpace=wrap;html=1;" vertex="1" parent="1">
          <mxGeometry x="-680" y="5506.5" width="120" height="229.5" as="geometry" />
        </mxCell>
        <mxCell id="mpIghDz12KklzBCiSZKW-7" value="&lt;p style=&quot;box-sizing: border-box; outline: 0px; margin: 0px; padding: 0px; font-size: 14px; color: rgb(79, 79, 79); overflow: auto hidden; line-height: 22px; overflow-wrap: break-word; text-align: left; font-family: -apple-system, &amp;quot;SF UI Text&amp;quot;, Arial, &amp;quot;PingFang SC&amp;quot;, &amp;quot;Hiragino Sans GB&amp;quot;, &amp;quot;Microsoft YaHei&amp;quot;, &amp;quot;WenQuanYi Micro Hei&amp;quot;, sans-serif, SimHei, SimSun; background-color: rgb(255, 255, 255);&quot;&gt;①投标人会议&lt;/p&gt;&lt;p style=&quot;box-sizing: border-box; outline: 0px; margin: 0px; padding: 0px; font-size: 14px; color: rgb(79, 79, 79); overflow: auto hidden; line-height: 22px; overflow-wrap: break-word; text-align: left; font-family: -apple-system, &amp;quot;SF UI Text&amp;quot;, Arial, &amp;quot;PingFang SC&amp;quot;, &amp;quot;Hiragino Sans GB&amp;quot;, &amp;quot;Microsoft YaHei&amp;quot;, &amp;quot;WenQuanYi Micro Hei&amp;quot;, sans-serif, SimHei, SimSun; background-color: rgb(255, 255, 255);&quot;&gt;②建议书评价技术&lt;/p&gt;&lt;p style=&quot;box-sizing: border-box; outline: 0px; margin: 0px; padding: 0px; font-size: 14px; color: rgb(79, 79, 79); overflow: auto hidden; line-height: 22px; overflow-wrap: break-word; text-align: left; font-family: -apple-system, &amp;quot;SF UI Text&amp;quot;, Arial, &amp;quot;PingFang SC&amp;quot;, &amp;quot;Hiragino Sans GB&amp;quot;, &amp;quot;Microsoft YaHei&amp;quot;, &amp;quot;WenQuanYi Micro Hei&amp;quot;, sans-serif, SimHei, SimSun; background-color: rgb(255, 255, 255);&quot;&gt;③独立估算&lt;/p&gt;&lt;p style=&quot;box-sizing: border-box; outline: 0px; margin: 0px; padding: 0px; font-size: 14px; color: rgb(79, 79, 79); overflow: auto hidden; line-height: 22px; overflow-wrap: break-word; text-align: left; font-family: -apple-system, &amp;quot;SF UI Text&amp;quot;, Arial, &amp;quot;PingFang SC&amp;quot;, &amp;quot;Hiragino Sans GB&amp;quot;, &amp;quot;Microsoft YaHei&amp;quot;, &amp;quot;WenQuanYi Micro Hei&amp;quot;, sans-serif, SimHei, SimSun; background-color: rgb(255, 255, 255);&quot;&gt;④专家判断&lt;/p&gt;&lt;p style=&quot;box-sizing: border-box; outline: 0px; margin: 0px; padding: 0px; font-size: 14px; color: rgb(79, 79, 79); overflow: auto hidden; line-height: 22px; overflow-wrap: break-word; text-align: left; font-family: -apple-system, &amp;quot;SF UI Text&amp;quot;, Arial, &amp;quot;PingFang SC&amp;quot;, &amp;quot;Hiragino Sans GB&amp;quot;, &amp;quot;Microsoft YaHei&amp;quot;, &amp;quot;WenQuanYi Micro Hei&amp;quot;, sans-serif, SimHei, SimSun; background-color: rgb(255, 255, 255);&quot;&gt;⑤广告&lt;/p&gt;&lt;p style=&quot;box-sizing: border-box; outline: 0px; margin: 0px; padding: 0px; font-size: 14px; color: rgb(79, 79, 79); overflow: auto hidden; line-height: 22px; overflow-wrap: break-word; text-align: left; font-family: -apple-system, &amp;quot;SF UI Text&amp;quot;, Arial, &amp;quot;PingFang SC&amp;quot;, &amp;quot;Hiragino Sans GB&amp;quot;, &amp;quot;Microsoft YaHei&amp;quot;, &amp;quot;WenQuanYi Micro Hei&amp;quot;, sans-serif, SimHei, SimSun; background-color: rgb(255, 255, 255);&quot;&gt;⑥分析技术&lt;/p&gt;&lt;p style=&quot;box-sizing: border-box; outline: 0px; margin: 0px; padding: 0px; font-size: 14px; color: rgb(79, 79, 79); overflow: auto hidden; line-height: 22px; overflow-wrap: break-word; text-align: left; font-family: -apple-system, &amp;quot;SF UI Text&amp;quot;, Arial, &amp;quot;PingFang SC&amp;quot;, &amp;quot;Hiragino Sans GB&amp;quot;, &amp;quot;Microsoft YaHei&amp;quot;, &amp;quot;WenQuanYi Micro Hei&amp;quot;, sans-serif, SimHei, SimSun; background-color: rgb(255, 255, 255);&quot;&gt;⑦采购谈判&lt;/p&gt;" style="rounded=0;whiteSpace=wrap;html=1;" vertex="1" parent="1">
          <mxGeometry x="-560" y="5736" width="120" height="160" as="geometry" />
        </mxCell>
        <mxCell id="mpIghDz12KklzBCiSZKW-8" value="&lt;p style=&quot;box-sizing: border-box; outline: 0px; margin: 0px; padding: 0px; font-size: 14px; color: rgb(79, 79, 79); overflow: auto hidden; line-height: 22px; overflow-wrap: break-word; text-align: left; font-family: -apple-system, &amp;quot;SF UI Text&amp;quot;, Arial, &amp;quot;PingFang SC&amp;quot;, &amp;quot;Hiragino Sans GB&amp;quot;, &amp;quot;Microsoft YaHei&amp;quot;, &amp;quot;WenQuanYi Micro Hei&amp;quot;, sans-serif, SimHei, SimSun; background-color: rgb(255, 255, 255);&quot;&gt;①选中的卖方&lt;/p&gt;&lt;p style=&quot;box-sizing: border-box; outline: 0px; margin: 0px; padding: 0px; font-size: 14px; color: rgb(79, 79, 79); overflow: auto hidden; line-height: 22px; overflow-wrap: break-word; text-align: left; font-family: -apple-system, &amp;quot;SF UI Text&amp;quot;, Arial, &amp;quot;PingFang SC&amp;quot;, &amp;quot;Hiragino Sans GB&amp;quot;, &amp;quot;Microsoft YaHei&amp;quot;, &amp;quot;WenQuanYi Micro Hei&amp;quot;, sans-serif, SimHei, SimSun; background-color: rgb(255, 255, 255);&quot;&gt;②合同&lt;/p&gt;&lt;p style=&quot;box-sizing: border-box; outline: 0px; margin: 0px; padding: 0px; font-size: 14px; color: rgb(79, 79, 79); overflow: auto hidden; line-height: 22px; overflow-wrap: break-word; text-align: left; font-family: -apple-system, &amp;quot;SF UI Text&amp;quot;, Arial, &amp;quot;PingFang SC&amp;quot;, &amp;quot;Hiragino Sans GB&amp;quot;, &amp;quot;Microsoft YaHei&amp;quot;, &amp;quot;WenQuanYi Micro Hei&amp;quot;, sans-serif, SimHei, SimSun; background-color: rgb(255, 255, 255);&quot;&gt;③资源日历&lt;/p&gt;&lt;p style=&quot;box-sizing: border-box; outline: 0px; margin: 0px; padding: 0px; font-size: 14px; color: rgb(79, 79, 79); overflow: auto hidden; line-height: 22px; overflow-wrap: break-word; text-align: left; font-family: -apple-system, &amp;quot;SF UI Text&amp;quot;, Arial, &amp;quot;PingFang SC&amp;quot;, &amp;quot;Hiragino Sans GB&amp;quot;, &amp;quot;Microsoft YaHei&amp;quot;, &amp;quot;WenQuanYi Micro Hei&amp;quot;, sans-serif, SimHei, SimSun; background-color: rgb(255, 255, 255);&quot;&gt;④变更请求&lt;/p&gt;&lt;p style=&quot;box-sizing: border-box; outline: 0px; margin: 0px; padding: 0px; font-size: 14px; color: rgb(79, 79, 79); overflow: auto hidden; line-height: 22px; overflow-wrap: break-word; text-align: left; font-family: -apple-system, &amp;quot;SF UI Text&amp;quot;, Arial, &amp;quot;PingFang SC&amp;quot;, &amp;quot;Hiragino Sans GB&amp;quot;, &amp;quot;Microsoft YaHei&amp;quot;, &amp;quot;WenQuanYi Micro Hei&amp;quot;, sans-serif, SimHei, SimSun; background-color: rgb(255, 255, 255);&quot;&gt;⑤项目管理计划更新&lt;/p&gt;" style="rounded=0;whiteSpace=wrap;html=1;" vertex="1" parent="1">
          <mxGeometry x="-440" y="5736" width="120" height="160" as="geometry" />
        </mxCell>
        <mxCell id="mpIghDz12KklzBCiSZKW-9" value="&lt;p style=&quot;box-sizing: border-box; outline: 0px; margin: 0px; padding: 0px; font-size: 14px; color: rgb(79, 79, 79); overflow: auto hidden; line-height: 22px; overflow-wrap: break-word; text-align: left; font-family: -apple-system, &amp;quot;SF UI Text&amp;quot;, Arial, &amp;quot;PingFang SC&amp;quot;, &amp;quot;Hiragino Sans GB&amp;quot;, &amp;quot;Microsoft YaHei&amp;quot;, &amp;quot;WenQuanYi Micro Hei&amp;quot;, sans-serif, SimHei, SimSun; background-color: rgb(255, 255, 255);&quot;&gt;执行过程组&lt;/p&gt;" style="rounded=0;whiteSpace=wrap;html=1;" vertex="1" parent="1">
          <mxGeometry x="-320" y="5736" width="120" height="160" as="geometry" />
        </mxCell>
        <mxCell id="mpIghDz12KklzBCiSZKW-10" value="&lt;p style=&quot;box-sizing: border-box; outline: 0px; margin: 0px; padding: 0px; font-size: 14px; color: rgb(79, 79, 79); overflow: auto hidden; line-height: 22px; overflow-wrap: break-word; text-align: left; font-family: -apple-system, &amp;quot;SF UI Text&amp;quot;, Arial, &amp;quot;PingFang SC&amp;quot;, &amp;quot;Hiragino Sans GB&amp;quot;, &amp;quot;Microsoft YaHei&amp;quot;, &amp;quot;WenQuanYi Micro Hei&amp;quot;, sans-serif, SimHei, SimSun; background-color: rgb(255, 255, 255);&quot;&gt;①采购管理计划&lt;/p&gt;&lt;p style=&quot;box-sizing: border-box; outline: 0px; margin: 0px; padding: 0px; font-size: 14px; color: rgb(79, 79, 79); overflow: auto hidden; line-height: 22px; overflow-wrap: break-word; text-align: left; font-family: -apple-system, &amp;quot;SF UI Text&amp;quot;, Arial, &amp;quot;PingFang SC&amp;quot;, &amp;quot;Hiragino Sans GB&amp;quot;, &amp;quot;Microsoft YaHei&amp;quot;, &amp;quot;WenQuanYi Micro Hei&amp;quot;, sans-serif, SimHei, SimSun; background-color: rgb(255, 255, 255);&quot;&gt;②采购文件&lt;/p&gt;&lt;p style=&quot;box-sizing: border-box; outline: 0px; margin: 0px; padding: 0px; font-size: 14px; color: rgb(79, 79, 79); overflow: auto hidden; line-height: 22px; overflow-wrap: break-word; text-align: left; font-family: -apple-system, &amp;quot;SF UI Text&amp;quot;, Arial, &amp;quot;PingFang SC&amp;quot;, &amp;quot;Hiragino Sans GB&amp;quot;, &amp;quot;Microsoft YaHei&amp;quot;, &amp;quot;WenQuanYi Micro Hei&amp;quot;, sans-serif, SimHei, SimSun; background-color: rgb(255, 255, 255);&quot;&gt;③项目文件&lt;/p&gt;&lt;p style=&quot;box-sizing: border-box; outline: 0px; margin: 0px; padding: 0px; font-size: 14px; color: rgb(79, 79, 79); overflow: auto hidden; line-height: 22px; overflow-wrap: break-word; text-align: left; font-family: -apple-system, &amp;quot;SF UI Text&amp;quot;, Arial, &amp;quot;PingFang SC&amp;quot;, &amp;quot;Hiragino Sans GB&amp;quot;, &amp;quot;Microsoft YaHei&amp;quot;, &amp;quot;WenQuanYi Micro Hei&amp;quot;, sans-serif, SimHei, SimSun; background-color: rgb(255, 255, 255);&quot;&gt;④项目文件&lt;/p&gt;&lt;p style=&quot;box-sizing: border-box; outline: 0px; margin: 0px; padding: 0px; font-size: 14px; color: rgb(79, 79, 79); overflow: auto hidden; line-height: 22px; overflow-wrap: break-word; text-align: left; font-family: -apple-system, &amp;quot;SF UI Text&amp;quot;, Arial, &amp;quot;PingFang SC&amp;quot;, &amp;quot;Hiragino Sans GB&amp;quot;, &amp;quot;Microsoft YaHei&amp;quot;, &amp;quot;WenQuanYi Micro Hei&amp;quot;, sans-serif, SimHei, SimSun; background-color: rgb(255, 255, 255);&quot;&gt;⑤采购工作说明书&lt;/p&gt;&lt;p style=&quot;box-sizing: border-box; outline: 0px; margin: 0px; padding: 0px; font-size: 14px; color: rgb(79, 79, 79); overflow: auto hidden; line-height: 22px; overflow-wrap: break-word; text-align: left; font-family: -apple-system, &amp;quot;SF UI Text&amp;quot;, Arial, &amp;quot;PingFang SC&amp;quot;, &amp;quot;Hiragino Sans GB&amp;quot;, &amp;quot;Microsoft YaHei&amp;quot;, &amp;quot;WenQuanYi Micro Hei&amp;quot;, sans-serif, SimHei, SimSun; background-color: rgb(255, 255, 255);&quot;&gt;⑥组织过程资产&lt;/p&gt;" style="rounded=0;whiteSpace=wrap;html=1;" vertex="1" parent="1">
          <mxGeometry x="-680" y="5736" width="120" height="160" as="geometry" />
        </mxCell>
        <mxCell id="mpIghDz12KklzBCiSZKW-11" value="&lt;h4 style=&quot;box-sizing: border-box; outline: 0px; margin: 24px 0px 8px; padding: 0px; font-family: &amp;quot;PingFang SC&amp;quot;, &amp;quot;Microsoft YaHei&amp;quot;, SimHei, Arial, SimSun; font-size: 18px; color: rgb(79, 79, 79); line-height: 26px; overflow-wrap: break-word; text-align: start; background-color: rgb(255, 255, 255);&quot;&gt;实施采购&lt;/h4&gt;" style="rounded=0;whiteSpace=wrap;html=1;" vertex="1" parent="1">
          <mxGeometry x="-800" y="5736" width="120" height="160" as="geometry" />
        </mxCell>
        <mxCell id="mpIghDz12KklzBCiSZKW-12" value="&lt;p style=&quot;box-sizing: border-box; outline: 0px; margin: 0px; padding: 0px; font-size: 14px; color: rgb(79, 79, 79); overflow: auto hidden; line-height: 22px; overflow-wrap: break-word; text-align: left; font-family: -apple-system, &amp;quot;SF UI Text&amp;quot;, Arial, &amp;quot;PingFang SC&amp;quot;, &amp;quot;Hiragino Sans GB&amp;quot;, &amp;quot;Microsoft YaHei&amp;quot;, &amp;quot;WenQuanYi Micro Hei&amp;quot;, sans-serif, SimHei, SimSun; background-color: rgb(255, 255, 255);&quot;&gt;①合同变更控制系统&lt;/p&gt;&lt;p style=&quot;box-sizing: border-box; outline: 0px; margin: 0px; padding: 0px; font-size: 14px; color: rgb(79, 79, 79); overflow: auto hidden; line-height: 22px; overflow-wrap: break-word; text-align: left; font-family: -apple-system, &amp;quot;SF UI Text&amp;quot;, Arial, &amp;quot;PingFang SC&amp;quot;, &amp;quot;Hiragino Sans GB&amp;quot;, &amp;quot;Microsoft YaHei&amp;quot;, &amp;quot;WenQuanYi Micro Hei&amp;quot;, sans-serif, SimHei, SimSun; background-color: rgb(255, 255, 255);&quot;&gt;②检查与审计&lt;/p&gt;&lt;p style=&quot;box-sizing: border-box; outline: 0px; margin: 0px; padding: 0px; font-size: 14px; color: rgb(79, 79, 79); overflow: auto hidden; line-height: 22px; overflow-wrap: break-word; text-align: left; font-family: -apple-system, &amp;quot;SF UI Text&amp;quot;, Arial, &amp;quot;PingFang SC&amp;quot;, &amp;quot;Hiragino Sans GB&amp;quot;, &amp;quot;Microsoft YaHei&amp;quot;, &amp;quot;WenQuanYi Micro Hei&amp;quot;, sans-serif, SimHei, SimSun; background-color: rgb(255, 255, 255);&quot;&gt;③采购绩效评审&lt;/p&gt;&lt;p style=&quot;box-sizing: border-box; outline: 0px; margin: 0px; padding: 0px; font-size: 14px; color: rgb(79, 79, 79); overflow: auto hidden; line-height: 22px; overflow-wrap: break-word; text-align: left; font-family: -apple-system, &amp;quot;SF UI Text&amp;quot;, Arial, &amp;quot;PingFang SC&amp;quot;, &amp;quot;Hiragino Sans GB&amp;quot;, &amp;quot;Microsoft YaHei&amp;quot;, &amp;quot;WenQuanYi Micro Hei&amp;quot;, sans-serif, SimHei, SimSun; background-color: rgb(255, 255, 255);&quot;&gt;④报告绩效&lt;/p&gt;&lt;p style=&quot;box-sizing: border-box; outline: 0px; margin: 0px; padding: 0px; font-size: 14px; color: rgb(79, 79, 79); overflow: auto hidden; line-height: 22px; overflow-wrap: break-word; text-align: left; font-family: -apple-system, &amp;quot;SF UI Text&amp;quot;, Arial, &amp;quot;PingFang SC&amp;quot;, &amp;quot;Hiragino Sans GB&amp;quot;, &amp;quot;Microsoft YaHei&amp;quot;, &amp;quot;WenQuanYi Micro Hei&amp;quot;, sans-serif, SimHei, SimSun; background-color: rgb(255, 255, 255);&quot;&gt;⑤支付系统&lt;/p&gt;&lt;p style=&quot;box-sizing: border-box; outline: 0px; margin: 0px; padding: 0px; font-size: 14px; color: rgb(79, 79, 79); overflow: auto hidden; line-height: 22px; overflow-wrap: break-word; text-align: left; font-family: -apple-system, &amp;quot;SF UI Text&amp;quot;, Arial, &amp;quot;PingFang SC&amp;quot;, &amp;quot;Hiragino Sans GB&amp;quot;, &amp;quot;Microsoft YaHei&amp;quot;, &amp;quot;WenQuanYi Micro Hei&amp;quot;, sans-serif, SimHei, SimSun; background-color: rgb(255, 255, 255);&quot;&gt;⑥索赔管理&lt;/p&gt;&lt;p style=&quot;box-sizing: border-box; outline: 0px; margin: 0px; padding: 0px; font-size: 14px; color: rgb(79, 79, 79); overflow: auto hidden; line-height: 22px; overflow-wrap: break-word; text-align: left; font-family: -apple-system, &amp;quot;SF UI Text&amp;quot;, Arial, &amp;quot;PingFang SC&amp;quot;, &amp;quot;Hiragino Sans GB&amp;quot;, &amp;quot;Microsoft YaHei&amp;quot;, &amp;quot;WenQuanYi Micro Hei&amp;quot;, sans-serif, SimHei, SimSun; background-color: rgb(255, 255, 255);&quot;&gt;⑦记录管理系统&lt;/p&gt;" style="rounded=0;whiteSpace=wrap;html=1;" vertex="1" parent="1">
          <mxGeometry x="-560" y="5896" width="120" height="180" as="geometry" />
        </mxCell>
        <mxCell id="mpIghDz12KklzBCiSZKW-13" value="&lt;p style=&quot;box-sizing: border-box; outline: 0px; margin: 0px; padding: 0px; font-size: 14px; color: rgb(79, 79, 79); overflow: auto hidden; line-height: 22px; overflow-wrap: break-word; text-align: left; font-family: -apple-system, &amp;quot;SF UI Text&amp;quot;, Arial, &amp;quot;PingFang SC&amp;quot;, &amp;quot;Hiragino Sans GB&amp;quot;, &amp;quot;Microsoft YaHei&amp;quot;, &amp;quot;WenQuanYi Micro Hei&amp;quot;, sans-serif, SimHei, SimSun; background-color: rgb(255, 255, 255);&quot;&gt;①工作绩效信息&lt;/p&gt;&lt;p style=&quot;box-sizing: border-box; outline: 0px; margin: 0px; padding: 0px; font-size: 14px; color: rgb(79, 79, 79); overflow: auto hidden; line-height: 22px; overflow-wrap: break-word; text-align: left; font-family: -apple-system, &amp;quot;SF UI Text&amp;quot;, Arial, &amp;quot;PingFang SC&amp;quot;, &amp;quot;Hiragino Sans GB&amp;quot;, &amp;quot;Microsoft YaHei&amp;quot;, &amp;quot;WenQuanYi Micro Hei&amp;quot;, sans-serif, SimHei, SimSun; background-color: rgb(255, 255, 255);&quot;&gt;②变更请求&lt;/p&gt;&lt;p style=&quot;box-sizing: border-box; outline: 0px; margin: 0px; padding: 0px; font-size: 14px; color: rgb(79, 79, 79); overflow: auto hidden; line-height: 22px; overflow-wrap: break-word; text-align: left; font-family: -apple-system, &amp;quot;SF UI Text&amp;quot;, Arial, &amp;quot;PingFang SC&amp;quot;, &amp;quot;Hiragino Sans GB&amp;quot;, &amp;quot;Microsoft YaHei&amp;quot;, &amp;quot;WenQuanYi Micro Hei&amp;quot;, sans-serif, SimHei, SimSun; background-color: rgb(255, 255, 255);&quot;&gt;③项目管理计划更新&lt;/p&gt;&lt;p style=&quot;box-sizing: border-box; outline: 0px; margin: 0px; padding: 0px; font-size: 14px; color: rgb(79, 79, 79); overflow: auto hidden; line-height: 22px; overflow-wrap: break-word; text-align: left; font-family: -apple-system, &amp;quot;SF UI Text&amp;quot;, Arial, &amp;quot;PingFang SC&amp;quot;, &amp;quot;Hiragino Sans GB&amp;quot;, &amp;quot;Microsoft YaHei&amp;quot;, &amp;quot;WenQuanYi Micro Hei&amp;quot;, sans-serif, SimHei, SimSun; background-color: rgb(255, 255, 255);&quot;&gt;④项目文件更新&lt;/p&gt;&lt;p style=&quot;box-sizing: border-box; outline: 0px; margin: 0px; padding: 0px; font-size: 14px; color: rgb(79, 79, 79); overflow: auto hidden; line-height: 22px; overflow-wrap: break-word; text-align: left; font-family: -apple-system, &amp;quot;SF UI Text&amp;quot;, Arial, &amp;quot;PingFang SC&amp;quot;, &amp;quot;Hiragino Sans GB&amp;quot;, &amp;quot;Microsoft YaHei&amp;quot;, &amp;quot;WenQuanYi Micro Hei&amp;quot;, sans-serif, SimHei, SimSun; background-color: rgb(255, 255, 255);&quot;&gt;⑤组织过程资产更新&lt;/p&gt;" style="rounded=0;whiteSpace=wrap;html=1;" vertex="1" parent="1">
          <mxGeometry x="-440" y="5896" width="120" height="180" as="geometry" />
        </mxCell>
        <mxCell id="mpIghDz12KklzBCiSZKW-14" value="&lt;p style=&quot;box-sizing: border-box; outline: 0px; margin: 0px; padding: 0px; font-size: 14px; color: rgb(79, 79, 79); overflow: auto hidden; line-height: 22px; overflow-wrap: break-word; text-align: left; font-family: -apple-system, &amp;quot;SF UI Text&amp;quot;, Arial, &amp;quot;PingFang SC&amp;quot;, &amp;quot;Hiragino Sans GB&amp;quot;, &amp;quot;Microsoft YaHei&amp;quot;, &amp;quot;WenQuanYi Micro Hei&amp;quot;, sans-serif, SimHei, SimSun; background-color: rgb(255, 255, 255);&quot;&gt;监控过程组&lt;/p&gt;" style="rounded=0;whiteSpace=wrap;html=1;" vertex="1" parent="1">
          <mxGeometry x="-320" y="5896" width="120" height="180" as="geometry" />
        </mxCell>
        <mxCell id="mpIghDz12KklzBCiSZKW-15" value="&lt;p style=&quot;box-sizing: border-box; outline: 0px; margin: 0px; padding: 0px; font-size: 14px; color: rgb(79, 79, 79); overflow: auto hidden; line-height: 22px; overflow-wrap: break-word; text-align: left; font-family: -apple-system, &amp;quot;SF UI Text&amp;quot;, Arial, &amp;quot;PingFang SC&amp;quot;, &amp;quot;Hiragino Sans GB&amp;quot;, &amp;quot;Microsoft YaHei&amp;quot;, &amp;quot;WenQuanYi Micro Hei&amp;quot;, sans-serif, SimHei, SimSun; background-color: rgb(255, 255, 255);&quot;&gt;①项目管理计划&lt;/p&gt;&lt;p style=&quot;box-sizing: border-box; outline: 0px; margin: 0px; padding: 0px; font-size: 14px; color: rgb(79, 79, 79); overflow: auto hidden; line-height: 22px; overflow-wrap: break-word; text-align: left; font-family: -apple-system, &amp;quot;SF UI Text&amp;quot;, Arial, &amp;quot;PingFang SC&amp;quot;, &amp;quot;Hiragino Sans GB&amp;quot;, &amp;quot;Microsoft YaHei&amp;quot;, &amp;quot;WenQuanYi Micro Hei&amp;quot;, sans-serif, SimHei, SimSun; background-color: rgb(255, 255, 255);&quot;&gt;②采购文件&lt;/p&gt;&lt;p style=&quot;box-sizing: border-box; outline: 0px; margin: 0px; padding: 0px; font-size: 14px; color: rgb(79, 79, 79); overflow: auto hidden; line-height: 22px; overflow-wrap: break-word; text-align: left; font-family: -apple-system, &amp;quot;SF UI Text&amp;quot;, Arial, &amp;quot;PingFang SC&amp;quot;, &amp;quot;Hiragino Sans GB&amp;quot;, &amp;quot;Microsoft YaHei&amp;quot;, &amp;quot;WenQuanYi Micro Hei&amp;quot;, sans-serif, SimHei, SimSun; background-color: rgb(255, 255, 255);&quot;&gt;③合同&lt;/p&gt;&lt;p style=&quot;box-sizing: border-box; outline: 0px; margin: 0px; padding: 0px; font-size: 14px; color: rgb(79, 79, 79); overflow: auto hidden; line-height: 22px; overflow-wrap: break-word; text-align: left; font-family: -apple-system, &amp;quot;SF UI Text&amp;quot;, Arial, &amp;quot;PingFang SC&amp;quot;, &amp;quot;Hiragino Sans GB&amp;quot;, &amp;quot;Microsoft YaHei&amp;quot;, &amp;quot;WenQuanYi Micro Hei&amp;quot;, sans-serif, SimHei, SimSun; background-color: rgb(255, 255, 255);&quot;&gt;④批准的变更请求&lt;/p&gt;&lt;p style=&quot;box-sizing: border-box; outline: 0px; margin: 0px; padding: 0px; font-size: 14px; color: rgb(79, 79, 79); overflow: auto hidden; line-height: 22px; overflow-wrap: break-word; text-align: left; font-family: -apple-system, &amp;quot;SF UI Text&amp;quot;, Arial, &amp;quot;PingFang SC&amp;quot;, &amp;quot;Hiragino Sans GB&amp;quot;, &amp;quot;Microsoft YaHei&amp;quot;, &amp;quot;WenQuanYi Micro Hei&amp;quot;, sans-serif, SimHei, SimSun; background-color: rgb(255, 255, 255);&quot;&gt;⑤工作绩效报告&lt;/p&gt;&lt;p style=&quot;box-sizing: border-box; outline: 0px; margin: 0px; padding: 0px; font-size: 14px; color: rgb(79, 79, 79); overflow: auto hidden; line-height: 22px; overflow-wrap: break-word; text-align: left; font-family: -apple-system, &amp;quot;SF UI Text&amp;quot;, Arial, &amp;quot;PingFang SC&amp;quot;, &amp;quot;Hiragino Sans GB&amp;quot;, &amp;quot;Microsoft YaHei&amp;quot;, &amp;quot;WenQuanYi Micro Hei&amp;quot;, sans-serif, SimHei, SimSun; background-color: rgb(255, 255, 255);&quot;&gt;⑥工作绩效数据&lt;/p&gt;" style="rounded=0;whiteSpace=wrap;html=1;" vertex="1" parent="1">
          <mxGeometry x="-680" y="5896" width="120" height="180" as="geometry" />
        </mxCell>
        <mxCell id="mpIghDz12KklzBCiSZKW-16" value="&lt;h4 style=&quot;box-sizing: border-box; outline: 0px; margin: 24px 0px 8px; padding: 0px; font-family: &amp;quot;PingFang SC&amp;quot;, &amp;quot;Microsoft YaHei&amp;quot;, SimHei, Arial, SimSun; font-size: 18px; color: rgb(79, 79, 79); line-height: 26px; overflow-wrap: break-word; text-align: start; background-color: rgb(255, 255, 255);&quot;&gt;控制采购&lt;/h4&gt;" style="rounded=0;whiteSpace=wrap;html=1;" vertex="1" parent="1">
          <mxGeometry x="-800" y="5896" width="120" height="180" as="geometry" />
        </mxCell>
        <mxCell id="mpIghDz12KklzBCiSZKW-17" value="&lt;p style=&quot;box-sizing: border-box; outline: 0px; margin: 0px; padding: 0px; font-size: 14px; color: rgb(79, 79, 79); overflow: auto hidden; line-height: 22px; overflow-wrap: break-word; text-align: left; font-family: -apple-system, &amp;quot;SF UI Text&amp;quot;, Arial, &amp;quot;PingFang SC&amp;quot;, &amp;quot;Hiragino Sans GB&amp;quot;, &amp;quot;Microsoft YaHei&amp;quot;, &amp;quot;WenQuanYi Micro Hei&amp;quot;, sans-serif, SimHei, SimSun; background-color: rgb(255, 255, 255);&quot;&gt;①采购审计&lt;/p&gt;&lt;p style=&quot;box-sizing: border-box; outline: 0px; margin: 0px; padding: 0px; font-size: 14px; color: rgb(79, 79, 79); overflow: auto hidden; line-height: 22px; overflow-wrap: break-word; text-align: left; font-family: -apple-system, &amp;quot;SF UI Text&amp;quot;, Arial, &amp;quot;PingFang SC&amp;quot;, &amp;quot;Hiragino Sans GB&amp;quot;, &amp;quot;Microsoft YaHei&amp;quot;, &amp;quot;WenQuanYi Micro Hei&amp;quot;, sans-serif, SimHei, SimSun; background-color: rgb(255, 255, 255);&quot;&gt;②采购谈判&lt;/p&gt;&lt;p style=&quot;box-sizing: border-box; outline: 0px; margin: 0px; padding: 0px; font-size: 14px; color: rgb(79, 79, 79); overflow: auto hidden; line-height: 22px; overflow-wrap: break-word; text-align: left; font-family: -apple-system, &amp;quot;SF UI Text&amp;quot;, Arial, &amp;quot;PingFang SC&amp;quot;, &amp;quot;Hiragino Sans GB&amp;quot;, &amp;quot;Microsoft YaHei&amp;quot;, &amp;quot;WenQuanYi Micro Hei&amp;quot;, sans-serif, SimHei, SimSun; background-color: rgb(255, 255, 255);&quot;&gt;③记录管理系统&lt;/p&gt;" style="rounded=0;whiteSpace=wrap;html=1;" vertex="1" parent="1">
          <mxGeometry x="-560" y="6076" width="120" height="100" as="geometry" />
        </mxCell>
        <mxCell id="mpIghDz12KklzBCiSZKW-18" value="&lt;p style=&quot;box-sizing: border-box; outline: 0px; margin: 0px; padding: 0px; font-size: 14px; color: rgb(79, 79, 79); overflow: auto hidden; line-height: 22px; overflow-wrap: break-word; text-align: left; font-family: -apple-system, &amp;quot;SF UI Text&amp;quot;, Arial, &amp;quot;PingFang SC&amp;quot;, &amp;quot;Hiragino Sans GB&amp;quot;, &amp;quot;Microsoft YaHei&amp;quot;, &amp;quot;WenQuanYi Micro Hei&amp;quot;, sans-serif, SimHei, SimSun; background-color: rgb(255, 255, 255);&quot;&gt;①合同收尾&lt;/p&gt;&lt;p style=&quot;box-sizing: border-box; outline: 0px; margin: 0px; padding: 0px; font-size: 14px; color: rgb(79, 79, 79); overflow: auto hidden; line-height: 22px; overflow-wrap: break-word; text-align: left; font-family: -apple-system, &amp;quot;SF UI Text&amp;quot;, Arial, &amp;quot;PingFang SC&amp;quot;, &amp;quot;Hiragino Sans GB&amp;quot;, &amp;quot;Microsoft YaHei&amp;quot;, &amp;quot;WenQuanYi Micro Hei&amp;quot;, sans-serif, SimHei, SimSun; background-color: rgb(255, 255, 255);&quot;&gt;②组织过程资产更新&lt;/p&gt;" style="rounded=0;whiteSpace=wrap;html=1;" vertex="1" parent="1">
          <mxGeometry x="-440" y="6076" width="120" height="100" as="geometry" />
        </mxCell>
        <mxCell id="mpIghDz12KklzBCiSZKW-19" value="&lt;p style=&quot;box-sizing: border-box; outline: 0px; margin: 0px; padding: 0px; font-size: 14px; color: rgb(79, 79, 79); overflow: auto hidden; line-height: 22px; overflow-wrap: break-word; text-align: left; font-family: -apple-system, &amp;quot;SF UI Text&amp;quot;, Arial, &amp;quot;PingFang SC&amp;quot;, &amp;quot;Hiragino Sans GB&amp;quot;, &amp;quot;Microsoft YaHei&amp;quot;, &amp;quot;WenQuanYi Micro Hei&amp;quot;, sans-serif, SimHei, SimSun; background-color: rgb(255, 255, 255);&quot;&gt;结束采购&lt;/p&gt;" style="rounded=0;whiteSpace=wrap;html=1;" vertex="1" parent="1">
          <mxGeometry x="-320" y="6076" width="120" height="100" as="geometry" />
        </mxCell>
        <mxCell id="mpIghDz12KklzBCiSZKW-20" value="&lt;p style=&quot;box-sizing: border-box; outline: 0px; margin: 0px; padding: 0px; font-size: 14px; color: rgb(79, 79, 79); overflow: auto hidden; line-height: 22px; overflow-wrap: break-word; text-align: left; font-family: -apple-system, &amp;quot;SF UI Text&amp;quot;, Arial, &amp;quot;PingFang SC&amp;quot;, &amp;quot;Hiragino Sans GB&amp;quot;, &amp;quot;Microsoft YaHei&amp;quot;, &amp;quot;WenQuanYi Micro Hei&amp;quot;, sans-serif, SimHei, SimSun; background-color: rgb(255, 255, 255);&quot;&gt;①合同&lt;/p&gt;&lt;p style=&quot;box-sizing: border-box; outline: 0px; margin: 0px; padding: 0px; font-size: 14px; color: rgb(79, 79, 79); overflow: auto hidden; line-height: 22px; overflow-wrap: break-word; text-align: left; font-family: -apple-system, &amp;quot;SF UI Text&amp;quot;, Arial, &amp;quot;PingFang SC&amp;quot;, &amp;quot;Hiragino Sans GB&amp;quot;, &amp;quot;Microsoft YaHei&amp;quot;, &amp;quot;WenQuanYi Micro Hei&amp;quot;, sans-serif, SimHei, SimSun; background-color: rgb(255, 255, 255);&quot;&gt;②合同收尾程序&lt;/p&gt;&lt;p style=&quot;box-sizing: border-box; outline: 0px; margin: 0px; padding: 0px; font-size: 14px; color: rgb(79, 79, 79); overflow: auto hidden; line-height: 22px; overflow-wrap: break-word; text-align: left; font-family: -apple-system, &amp;quot;SF UI Text&amp;quot;, Arial, &amp;quot;PingFang SC&amp;quot;, &amp;quot;Hiragino Sans GB&amp;quot;, &amp;quot;Microsoft YaHei&amp;quot;, &amp;quot;WenQuanYi Micro Hei&amp;quot;, sans-serif, SimHei, SimSun; background-color: rgb(255, 255, 255);&quot;&gt;③项目管理计划&lt;/p&gt;&lt;p style=&quot;box-sizing: border-box; outline: 0px; margin: 0px; padding: 0px; font-size: 14px; color: rgb(79, 79, 79); overflow: auto hidden; line-height: 22px; overflow-wrap: break-word; text-align: left; font-family: -apple-system, &amp;quot;SF UI Text&amp;quot;, Arial, &amp;quot;PingFang SC&amp;quot;, &amp;quot;Hiragino Sans GB&amp;quot;, &amp;quot;Microsoft YaHei&amp;quot;, &amp;quot;WenQuanYi Micro Hei&amp;quot;, sans-serif, SimHei, SimSun; background-color: rgb(255, 255, 255);&quot;&gt;④采购文件&lt;/p&gt;" style="rounded=0;whiteSpace=wrap;html=1;" vertex="1" parent="1">
          <mxGeometry x="-680" y="6076" width="120" height="100" as="geometry" />
        </mxCell>
        <mxCell id="mpIghDz12KklzBCiSZKW-21" value="&lt;h4 style=&quot;box-sizing: border-box; outline: 0px; margin: 24px 0px 8px; padding: 0px; font-family: &amp;quot;PingFang SC&amp;quot;, &amp;quot;Microsoft YaHei&amp;quot;, SimHei, Arial, SimSun; font-size: 18px; color: rgb(79, 79, 79); line-height: 26px; overflow-wrap: break-word; text-align: start; background-color: rgb(255, 255, 255);&quot;&gt;结束采购&lt;/h4&gt;" style="rounded=0;whiteSpace=wrap;html=1;" vertex="1" parent="1">
          <mxGeometry x="-800" y="6076" width="120" height="100" as="geometry" />
        </mxCell>
        <mxCell id="mpIghDz12KklzBCiSZKW-22" value="输入" style="rounded=0;whiteSpace=wrap;html=1;fillColor=#ffe6cc;strokeColor=#d79b00;" vertex="1" parent="1">
          <mxGeometry x="-680" y="5446" width="120" height="60" as="geometry" />
        </mxCell>
        <mxCell id="mpIghDz12KklzBCiSZKW-23" value="技术或工具" style="rounded=0;whiteSpace=wrap;html=1;fillColor=#ffe6cc;strokeColor=#d79b00;" vertex="1" parent="1">
          <mxGeometry x="-560" y="5446" width="120" height="60" as="geometry" />
        </mxCell>
        <mxCell id="mpIghDz12KklzBCiSZKW-24" value="输出" style="rounded=0;whiteSpace=wrap;html=1;fillColor=#ffe6cc;strokeColor=#d79b00;" vertex="1" parent="1">
          <mxGeometry x="-440" y="5446" width="120" height="60" as="geometry" />
        </mxCell>
        <mxCell id="mpIghDz12KklzBCiSZKW-25" value="过程" style="rounded=0;whiteSpace=wrap;html=1;fillColor=#ffe6cc;strokeColor=#d79b00;" vertex="1" parent="1">
          <mxGeometry x="-800" y="5446" width="120" height="60" as="geometry" />
        </mxCell>
        <mxCell id="mpIghDz12KklzBCiSZKW-26" value="所属分组" style="rounded=0;whiteSpace=wrap;html=1;fillColor=#ffe6cc;strokeColor=#d79b00;" vertex="1" parent="1">
          <mxGeometry x="-320" y="5446" width="120" height="60" as="geometry" />
        </mxCell>
        <mxCell id="mpIghDz12KklzBCiSZKW-27" value="知识领域" style="rounded=0;whiteSpace=wrap;html=1;fillColor=#ffe6cc;strokeColor=#d79b00;" vertex="1" parent="1">
          <mxGeometry x="-920" y="5446" width="120" height="60" as="geometry" />
        </mxCell>
      </root>
    </mxGraphModel>
  </diagram>
</mxfile>
